# xmcd
#
# Track frame offsets: 
#        150
#        17190
#        33035
#        52445
#        66005
#        79448
#        97445
#        113820
#        130928
#        147768
#
# Disc length: 2222 seconds
#
# Revision: 2
# Processed by: cddbd v1.4PL0 Copyright (c) Steve Scherf et al.
# Submitted via: ExactAudioCopy v0.90b2
#
DISCID=9308ac0a
DTITLE=Restless Heart - Wheels
DYEAR=1986
DGENRE=Country
TTITLE0=Wheels
TTITLE1=That Rock Won't Roll
TTITLE2=I'll Still Be Loving You
TTITLE3=Why Does It Have To Be (Wrong Or Right)
TTITLE4=Hummingbird
TTITLE5=The Boy's On A Roll
TTITLE6=Hard Time
TTITLE7=Victim Of The Game
TTITLE8=New York (Hold Her Tight)
TTITLE9=We Owned This Town
EXTD=
EXTT0=
EXTT1=
EXTT2=
EXTT3=
EXTT4=
EXTT5=
EXTT6=
EXTT7=
EXTT8=
EXTT9=
PLAYORDER=
